/* XPM */
static char * cursor_xpm[] = {
"20 20 32 1",
" 	c #FFFFFE",
".	c #010101",
"+	c #000000",
"@	c #323232",
"#	c #D3D3D3",
"$	c #5A5A5A",
"%	c #E6E6E6",
"&	c #ECECEC",
"*	c #5B5B5B",
"=	c #FEFEFE",
"-	c #EDEDED",
";	c #595959",
">	c #FDFDFD",
",	c #5C5C5C",
"'	c #EEEEEE",
")	c #B0B0B0",
"!	c #4C4C4C",
"~	c #DCDCDC",
"{	c #DBDBDB",
"]	c #BEBEBE",
"^	c #C9C9C9",
"/	c #F7F7F7",
"(	c #3B3B3B",
"_	c #737373",
":	c #A7A7A7",
"<	c #E2E2E2",
"[	c #E8E8E8",
"}	c #9F9F9F",
"|	c #818181",
"1	c #2A2A2A",
"2	c #F4F4F4",
"3	c #D0D0D0",
"                    ",
"     .              ",
"     +@             ",
"     +#$            ",
"     +%&*           ",
"     .%=-;          ",
"     +%>=-*         ",
"     +%===&$        ",
"     .%====-$       ",
"     +%====>&,      ",
"     +%===>')!.     ",
"     +%==>~+.       ",
"     .{]*^/(        ",
"     ++. _=:        ",
"         +<[+       ",
"          }=|       ",
"          123.      ",
"          .))+      ",
"           +.       ",
"                    "};
