/* XPM */
static char * star_xpm[] = {
"13 21 90 1",
" 	c #FFFFFE",
".	c #ECE2C5",
"+	c #FCFBF9",
"@	c #F7EDCF",
"#	c #C7A74A",
"$	c #FBFCFD",
"%	c #FDFCF9",
"&	c #FEFFFF",
"*	c #FEFEFE",
"=	c #DBB542",
"-	c #BF9822",
";	c #FAFCFF",
">	c #FBF9EF",
",	c #D3B55E",
"'	c #D9C58F",
")	c #EFE9DB",
"!	c #FDFFFF",
"~	c #EAD699",
"{	c #CB9300",
"]	c #C09822",
"^	c #F7F8FC",
"/	c #E6CD80",
"(	c #C18800",
"_	c #C29207",
":	c #CDA83B",
"<	c #D0A115",
"[	c #CC9500",
"}	c #BF9720",
"|	c #F8FAFF",
"1	c #FCF9F1",
"2	c #D5AA29",
"3	c #CB9400",
"4	c #CB9500",
"5	c #CB9700",
"6	c #CD9900",
"7	c #C1920E",
"8	c #E1D8C0",
"9	c #ECD99F",
"0	c #CB9703",
"a	c #CB9800",
"b	c #CC9900",
"c	c #CC9800",
"d	c #C28F00",
"e	c #CAA94D",
"f	c #E6DABB",
"g	c #FDFCF7",
"h	c #D3A825",
"i	c #CA9500",
"j	c #CF9A00",
"k	c #C78C00",
"l	c #B58100",
"m	c #CCB679",
"n	c #FDFDFD",
"o	c #ECDAA2",
"p	c #CB9704",
"q	c #C28E00",
"r	c #C8A443",
"s	c #E2D4AF",
"t	c #F9F7F2",
"u	c #FCFAF2",
"v	c #D5AA2B",
"w	c #C2930D",
"x	c #DFD4B7",
"y	c #E6CD81",
"z	c #C28800",
"A	c #C29103",
"B	c #CCA535",
"C	c #D0A012",
"D	c #BF9721",
"E	c #F9FBFF",
"F	c #FBF9EE",
"G	c #D2B35A",
"H	c #D7C188",
"I	c #EDE7D5",
"J	c #FCFDFF",
"K	c #E8D391",
"L	c #CA9200",
"M	c #C19924",
"N	c #F8F9FD",
"O	c #FDFCF8",
"P	c #FEFEFF",
"Q	c #FEFDFB",
"R	c #DAB23A",
"S	c #C09925",
"T	c #FBFDFF",
"U	c #F5EAC7",
"V	c #C6A548",
"W	c #FBFDFE",
"X	c #EADFBF",
"Y	c #FCFCFA",
"             ",
"             ",
"             ",
"       .+    ",
"      @#$    ",
"%&   *=-;    ",
">,')!~{]^    ",
" /(_:<[}|    ",
" 12345678    ",
"  90abbcdef+ ",
"  ghibbbjklmn",
"  opabbcqrst ",
" uv3456wx!   ",
" yzABC[DE    ",
"FGHIJKLMN    ",
"OP   QRST    ",
"      UVW    ",
"       XY    ",
"             ",
"             ",
"             "};
