/* XPM */
static char * KEY_COMMA_xpm[] = {
/* width height ncolors chars_per_pixel */
"13 21 2 1",
/* colors */
"! c #000000",
"# c #FFFFFE",
/* image */
"#############",
"#############",
"#############",
"#############",
"#############",
"#############",
"#############",
"#############",
"#############",
"#############",
"#############",
"#############",
"#############",
"#############",
"#############",
"###!!!#######",
"###!!!#######",
"##!!!########",
"##!!!########",
"#!!!#########",
"#############"};
