/* XPM */
static char * exclamation_xpm[] = {
"13 21 2 1",
/* colors */
"# c #000000",
" 	c #FFFFFE",
"             ",
"             ",
"     ###     ",
"     ###     ",
"     ###     ",
"     ###     ",
"     ###     ",
"     ###     ",
"     ###     ",
"     ###     ",
"     ###     ",
"     ###     ",
"     ###     ",
"     ###     ",
"             ",
"     ###     ",
"     ###     ",
"             ",
"             ",
"             ",
"             "};
