/* XPM */
static char * right_parenthesis_xpm[] = {
"13 21 2 1",
" 	c #FFFFFE",
"@	c #000000",
"             ",
"    @@       ",
"    @@@      ",
"    @@@      ",
"     @@@     ",
"     @@@     ",
"      @@     ",
"      @@@    ",
"      @@@    ",
"      @@@    ",
"      @@@    ",
"      @@@    ",
"      @@@    ",
"      @@@    ",
"      @@     ",
"     @@@     ",
"     @@@     ",
"    @@@      ",
"    @@@      ",
"    @@       ",
"             "};
